<?xml version="1.0" encoding="UTF-8"?>
<svg xmlns:xlink="http://www.w3.org/1999/xlink" xmlns="http://www.w3.org/2000/svg" viewBox="204.8 204.8 622.592 618.496" style="max-height: 500px; background: transparent;" width="622.592" height="618.496"><path d="M751.986 258.193C758.116 257.812 765.491 257.972 771.743 257.976C771.961 278.125 771.946 298.275 771.697 318.424L771.517 414.414C771.465 436.254 771.587 458.094 771.882 479.932C772.314 534.319 770.942 569.463 746.247 619.69C735.396 641.742 721.615 662.228 705.279 680.591C660.942 730.541 593.14 764.656 526.206 768.343C459.433 771.965 394.01 748.572 344.67 703.435C344.445 676.013 344.416 648.591 344.584 621.169C348.692 616.566 354.996 610.662 359.494 606.194C364.8 613.668 369.663 620.294 375.795 627.161C417.267 673.609 477.581 698.432 539.972 689.427C562.568 686.413 592.485 674.775 611.672 662.484C621.331 656.297 629.618 648.837 637.622 640.706C664.116 614.294 682.432 580.803 690.374 544.245C686.919 543.985 682.985 543.876 679.507 543.937C657.886 544.315 634.655 539.557 617.886 556.454C612.351 562.041 608.395 568.995 606.42 576.608C603.901 586.334 604.565 603.529 604.57 614.225L604.651 657.757C599.707 653.925 593.788 647.954 589.269 643.522C581.973 636.316 574.636 629.151 567.258 622.029C560.833 615.859 554.372 609.726 547.874 603.633C543.343 599.367 538.625 595.151 534.631 590.379C534.561 590.295 533.484 588.984 533.402 588.814C532.662 587.27 532.545 583.8 532.532 582.166C532.349 558.827 532.568 535.485 532.516 512.146C532.491 490.074 532.358 467.986 532.387 445.919C532.391 443.059 532.86 440.072 533.358 437.276C533.487 435.738 534.316 434.371 535.352 433.242C543.935 423.891 553.382 415.037 562.449 406.143C576.524 392.217 590.47 378.162 604.286 363.979C604.968 370.742 604.741 379.622 604.729 386.533L604.663 420.097C604.638 435.792 603.541 450.647 615.569 462.67C619.8 466.899 625.074 469.934 630.856 471.468C638.93 473.653 652.461 473.111 661.232 473.107L693.008 473.07L692.936 362.136L692.908 331.537C692.902 323.804 692.583 314.454 693.88 306.961C695.531 297.694 699.564 289.016 705.585 281.781C717.677 267.085 733.355 260.104 751.986 258.193Z" fill="#662CE3"/><path d="M507.744 344.157C534.231 341.418 566.779 350.375 590.18 362.495L423.173 526.681C428.221 525.115 444.2 521.983 448.728 525.325C454.068 529.266 460.575 535.927 465.383 540.722C472.99 548.375 480.654 555.971 488.376 563.508L564.13 636.748C572.831 645.256 581.851 653.548 590.366 662.224C568.513 673.34 544.072 678.046 519.632 678.85C494.224 679.686 490.671 671.867 473.204 655.398C448.256 631.875 423.659 607.719 398.854 583.921C393.3 578.675 387.735 573.321 381.963 568.327L349.959 600.234C343.779 606.278 336.365 612.99 330.596 619.267L330.551 680.883C330.496 705.365 333.251 729.689 313.89 748.875C294.654 767.936 276.813 766.771 251.797 766.87L251.523 597.496L251.828 597.09C256.849 590.507 264.252 583.352 270.115 577.231L297.555 548.381C333.474 510.963 369.771 473.909 406.441 437.226L467.942 375.652C477.063 366.599 486.516 356.933 495.958 348.186C498.854 345.504 503.904 344.674 507.744 344.157Z" fill="#662CE3"/><path d="M497.762 255.205C497.903 255.19 498.043 255.174 498.184 255.159C565.646 251.666 628.99 275.271 678.996 319.702L678.927 436.931C627.732 342.58 521.634 303.139 424.475 356.162C402.535 368.135 387.103 382.939 371.007 401.825C353.941 421.941 340.851 448.255 334.684 473.876C332.913 481.232 331.774 490.722 330.833 498.304C327.848 501.635 324.019 505.13 320.754 508.303C300.24 528.235 280.542 550.654 259.376 569.866C256.018 560.618 252.556 534.378 252.025 524.201C248.816 462.637 269.842 401.434 309.865 354.938C359.394 297.4 421.301 260.526 497.762 255.205Z" fill="#662CE3"/><path d="M252.095 257.931C274.17 257.822 287.712 256.345 307.097 270.025C321.931 280.495 329.929 294.964 333.028 312.697C310.993 331.728 296.412 347.988 280.306 372.81C268.422 391.946 261.677 406.324 252.541 426.301C252.129 406.99 252.439 386.928 252.373 367.555C252.083 331.015 251.99 294.473 252.095 257.931Z" fill="#662CE3"/><path d="M771.115 600.309C772.283 603.659 771.655 646.968 771.646 652.976L771.6 766.688C744.673 766.647 733.074 768.093 712.049 748.709C699.481 736.14 696.608 724.891 693.616 708.029C720.284 686.226 741.796 655.914 758.243 625.895C762.847 617.493 766.545 608.679 771.115 600.309Z" fill="#662CE3"/></svg>